<?xml version="1.0" standalone="no"?>
<!DOCTYPE svg PUBLIC "-//W3C//DTD SVG 20010904//EN"
 "http://www.w3.org/TR/2001/REC-SVG-20010904/DTD/svg10.dtd">
<svg version="1.0" xmlns="http://www.w3.org/2000/svg"
 width="700.000000pt" height="700.000000pt" viewBox="0 0 700.000000 700.000000"
 preserveAspectRatio="xMidYMid meet">
<metadata>
Created by potrace 1.14, written by Peter Selinger 2001-2017
</metadata>
<g transform="translate(0.000000,700.000000) scale(0.100000,-0.100000)"
fill="#000000" stroke="none">
<path d="M2135 6230 c-2 -3 -3 -308 -3 -678 1 -370 -2 -675 -5 -678 -3 -3
-310 -6 -683 -7 l-678 -2 -1 -1355 c0 -745 1 -1360 3 -1366 2 -9 180 -12 678
-12 371 0 678 -2 681 -5 3 -3 5 -310 5 -680 l0 -675 21 -4 c18 -3 2688 -2
2709 1 3 1 6 305 6 676 0 372 2 678 5 681 3 4 311 7 684 8 l677 1 1 1355 c0
745 -1 1360 -3 1366 -2 9 -167 12 -620 12 -339 1 -646 1 -682 1 l-65 1 0 682
0 682 -1363 1 c-750 0 -1365 -2 -1367 -5z"/>
</g>
</svg>
